                                                                        S0000001
,,31HOpen CASCADE IGES processor 7.8,13HFilename.iges,                  G0000001
16HOpen CASCADE 7.8,31HOpen CASCADE IGES processor 7.8,32,308,15,308,15,G0000002
,1.,6,1HM,1,0.00001,15H20251121.123929,1E-07,1.003665,5Hamola,,11,0,    G0000003
15H20251121.123929,;                                                    G0000004
     144       1       0       0       0       0       0       000000000D0000001
     144       0       0       1       0                               0D0000002
     120       2       0       0       0       0       5       000010000D0000003
     120       0       0       1       0                               0D0000004
     124       3       0       0       0       0       0       000000000D0000005
     124       0       0       3       0                               0D0000006
     110       6       0       0       0       0       0       000010000D0000007
     110       0       0       1       0                               0D0000008
     100       7       0       0       0       0      11       000010000D0000009
     100       0       0       1       0                               0D0000010
     124       8       0       0       0       0       0       000000000D0000011
     124       0       0       1       0                               0D0000012
     142       9       0       0       0       0       0       000010500D0000013
     142       0       0       1       0                               0D0000014
     102      10       0       0       0       0       0       000010000D0000015
     102       0       0       1       0                               0D0000016
     110      11       0       0       0       0       0       000010000D0000017
     110       0       0       1       0                               0D0000018
     110      12       0       0       0       0       0       000010000D0000019
     110       0       0       2       0                               0D0000020
     102      14       0       0       0       0       0       000010000D0000021
     102       0       0       1       0                               0D0000022
     100      15       0       0       0       0      25       000010000D0000023
     100       0       0       1       0                               0D0000024
     124      16       0       0       0       0       0       000000000D0000025
     124       0       0       3       0                               0D0000026
     100      19       0       0       0       0      29       000010000D0000027
     100       0       0       1       0                               0D0000028
     124      20       0       0       0       0       0       000000000D0000029
     124       0       0       3       0                               0D0000030
144,3,1,0,13;                                                    0000001P0000001
120,7,9,0.,6.283185307;                                          0000003P0000002
124,0.995134034,-6.47324381E-02,7.428300677E-02,0.,              0000005P0000003
6.958655048E-02,0.995473467,-6.47324381E-02,0.,-6.975647374E-02, 0000005P0000004
6.958655048E-02,0.995134034,0.;                                  0000005P0000005
110,0.,0.,1.,0.,0.,0.;                                           0000007P0000006
100,0.,0.,0.,6.123233996E-17,-1.,6.123233996E-17,1.;             0000009P0000007
124,1.,0.,0.,0.,0.,0.,-1.,0.,0.,1.,-0.,0.;                       0000011P0000008
142,0,3,15,21,3;                                                 0000013P0000009
102,2,17,19;                                                     0000015P0000010
110,1.570796327,6.283185307,0.,-1.570796327,6.283185307,0.;      0000017P0000011
110,-1.570796327,1.046360549E-15,0.,1.570796327,1.743934249E-15, 0000019P0000012
0.;                                                              0000019P0000013
102,2,23,27;                                                     0000021P0000014
100,0.,0.,0.,4.163336342E-17,-1.,6.938893904E-17,1.;             0000023P0000015
124,0.995134034,-7.428300677E-02,-6.47324381E-02,0.,             0000025P0000016
6.958655048E-02,6.47324381E-02,0.995473467,0.,-6.975647374E-02,  0000025P0000017
-0.995134034,6.958655048E-02,0.;                                 0000025P0000018
100,0.,0.,0.,-1.665334537E-16,-1.,2.91433544E-16,1.;             0000027P0000019
124,0.995134034,7.428300677E-02,6.47324381E-02,0.,               0000029P0000020
6.958655048E-02,-6.47324381E-02,-0.995473467,0.,                 0000029P0000021
-6.975647374E-02,0.995134034,-6.958655048E-02,0.;                0000029P0000022
S      1G      4D     30P     22                                        T0000001
